{
  "asset": {
    "generator": "Khronos Blender glTF 2.0 I/O",
    "version": "2.0"
  },
  "scene": 0,
  "scenes": [
    {
      "name": "Scene",
      "nodes": [
        10
      ]
    }
  ],
  "nodes": [
    {
      "mesh": 0,
      "name": "alpha_tex01",
      "rotation": [
        0.7071068286895752,
        -0.7071068286895752,
        0,
        -5.338509012631221e-8
      ],
      "scale": [
        0.3457907736301422,
        0.3457907736301422,
        0.3457907736301422
      ],
      "translation": [
        0.09528931230306625,
        5.576578617095947,
        1.4537798166275024
      ]
    },
    {
      "mesh": 1,
      "name": "AO_1",
      "rotation": [
        0,
        1,
        0,
        1.6292068494294654e-7
      ],
      "scale": [
        2.256868362426758,
        2.6831841468811035,
        2.256868362426758
      ]
    },
    {
      "mesh": 2,
      "name": "AO_light",
      "rotation": [
        0,
        1,
        0,
        1.6292068494294654e-7
      ],
      "scale": [
        2.256868362426758,
        2.6831841468811035,
        2.256868362426758
      ]
    },
    {
      "mesh": 3,
      "name": "foil_gold",
      "rotation": [
        0,
        1,
        0,
        1.6292068494294654e-7
      ],
      "scale": [
        1.0555567741394043,
        1.0555567741394043,
        1.0555567741394043
      ]
    },
    {
      "mesh": 4,
      "name": "foil_silver",
      "rotation": [
        0,
        1,
        0,
        1.6292068494294654e-7
      ],
      "scale": [
        1.0555567741394043,
        1.0555567741394043,
        1.0555567741394043
      ]
    },
    {
      "mesh": 5,
      "name": "shiny_panel",
      "rotation": [
        0.7071068286895752,
        -0.7071068286895752,
        0,
        -5.338509012631221e-8
      ],
      "scale": [
        0.3457907736301422,
        0.3457907736301422,
        0.3457907736301422
      ]
    },
    {
      "mesh": 6,
      "name": "shiny_panel_cylinder",
      "rotation": [
        0,
        1,
        0,
        1.6292068494294654e-7
      ],
      "scale": [
        2.256868362426758,
        2.6831841468811035,
        2.256868362426758
      ],
      "translation": [
        -0.000019472328858682886,
        -3.860278844833374,
        0.7242596745491028
      ]
    },
    {
      "mesh": 7,
      "name": "tex_01",
      "rotation": [
        0.7071068286895752,
        -0.7071068286895752,
        0,
        -5.338509012631221e-8
      ],
      "scale": [
        0.3457907736301422,
        0.3457907736301422,
        0.3457907736301422
      ]
    },
    {
      "mesh": 8,
      "name": "tex_02",
      "rotation": [
        0,
        1,
        0,
        1.6292068494294654e-7
      ],
      "scale": [
        1.0555567741394043,
        1.0555567741394043,
        1.0555567741394043
      ]
    },
    {
      "mesh": 9,
      "name": "tex_03",
      "rotation": [
        0,
        1,
        0,
        1.6292068494294654e-7
      ],
      "scale": [
        2.256868362426758,
        2.6831841468811035,
        2.256868362426758
      ]
    },
    {
      "children": [
        0,
        1,
        2,
        3,
        4,
        5,
        6,
        7,
        8,
        9
      ],
      "mesh": 10,
      "name": "_root"
    }
  ],
  "materials": [
    {
      "alphaMode": "BLEND",
      "name": "NASA_logo",
      "pbrMetallicRoughness": {
        "baseColorTexture": {
          "index": 0,
          "texCoord": 0
        },
        "metallicFactor": 0,
        "roughnessFactor": 1
      }
    },
    {
      "name": "AO_1",
      "pbrMetallicRoughness": {
        "baseColorTexture": {
          "index": 1,
          "texCoord": 0
        },
        "metallicFactor": 1,
        "roughnessFactor": 0.4000000059604645
      }
    },
    {
      "name": "AO_light",
      "pbrMetallicRoughness": {
        "baseColorTexture": {
          "index": 2,
          "texCoord": 0
        },
        "metallicFactor": 0,
        "roughnessFactor": 0.5
      }
    },
    {
      "name": "foil_silver",
      "normalTexture": {
        "index": 3,
        "scale": 2,
        "texCoord": 0
      },
      "pbrMetallicRoughness": {
        "baseColorFactor": [
          0.7991031408309937,
          0.7991029024124146,
          0.7991030216217041,
          1
        ],
        "metallicFactor": 1,
        "roughnessFactor": 0.30000001192092896
      }
    },
    {
      "emissiveFactor": [
        0,
        0,
        0
      ],
      "name": "shiny_panel",
      "pbrMetallicRoughness": {
        "baseColorFactor": [
          1,
          1,
          1,
          1
        ],
        "baseColorTexture": {
          "index": 4,
          "texCoord": 0
        },
        "metallicFactor": 1,
        "roughnessFactor": 0.10000000149011612
      }
    },
    {
      "emissiveFactor": [
        0,
        0,
        0
      ],
      "name": "shiny_panel_cylinder",
      "pbrMetallicRoughness": {
        "baseColorFactor": [
          1,
          1,
          1,
          1
        ],
        "baseColorTexture": {
          "index": 5,
          "texCoord": 0
        },
        "metallicFactor": 1,
        "roughnessFactor": 0.30000001192092896
      }
    },
    {
      "name": "tex_01",
      "pbrMetallicRoughness": {
        "baseColorTexture": {
          "index": 6,
          "texCoord": 0
        },
        "metallicFactor": 1,
        "roughnessFactor": 0.30000001192092896
      }
    },
    {
      "name": "tex_02",
      "pbrMetallicRoughness": {
        "baseColorTexture": {
          "index": 7,
          "texCoord": 0
        },
        "metallicFactor": 0,
        "roughnessFactor": 1
      }
    },
    {
      "name": "tex_03",
      "pbrMetallicRoughness": {
        "baseColorTexture": {
          "index": 8,
          "texCoord": 0
        },
        "metallicFactor": 0,
        "roughnessFactor": 1
      }
    },
    {
      "alphaMode": "BLEND",
      "name": "transparent",
      "pbrMetallicRoughness": {
        "baseColorTexture": {
          "index": 9,
          "texCoord": 0
        },
        "metallicFactor": 0,
        "roughnessFactor": 0.5
      }
    }
  ],
  "meshes": [
    {
      "name": "Cylinder.008",
      "primitives": [
        {
          "attributes": {
            "POSITION": 0,
            "NORMAL": 1,
            "TEXCOORD_0": 2
          },
          "indices": 3,
          "material": 0
        }
      ]
    },
    {
      "name": "Cylinder.003",
      "primitives": [
        {
          "attributes": {
            "POSITION": 4,
            "NORMAL": 5,
            "TEXCOORD_0": 6
          },
          "indices": 7,
          "material": 1
        }
      ]
    },
    {
      "name": "Cylinder.007",
      "primitives": [
        {
          "attributes": {
            "POSITION": 8,
            "NORMAL": 9,
            "TEXCOORD_0": 10
          },
          "indices": 11,
          "material": 2
        }
      ]
    },
    {
      "name": "Cube.002",
      "primitives": [
        {
          "attributes": {
            "POSITION": 12,
            "NORMAL": 13,
            "TEXCOORD_0": 14
          },
          "indices": 15
        }
      ]
    },
    {
      "name": "Cube.000",
      "primitives": [
        {
          "attributes": {
            "POSITION": 16,
            "NORMAL": 17,
            "TEXCOORD_0": 18
          },
          "indices": 19,
          "material": 3
        }
      ]
    },
    {
      "name": "Cylinder.009",
      "primitives": [
        {
          "attributes": {
            "POSITION": 20,
            "NORMAL": 21,
            "TEXCOORD_0": 22
          },
          "indices": 23,
          "material": 4
        }
      ]
    },
    {
      "name": "Cylinder.000",
      "primitives": [
        {
          "attributes": {
            "POSITION": 24,
            "NORMAL": 25,
            "TEXCOORD_0": 26
          },
          "indices": 27,
          "material": 5
        }
      ]
    },
    {
      "name": "Cylinder.004",
      "primitives": [
        {
          "attributes": {
            "POSITION": 28,
            "NORMAL": 29,
            "TEXCOORD_0": 30
          },
          "indices": 31,
          "material": 6
        }
      ]
    },
    {
      "name": "Cube.001",
      "primitives": [
        {
          "attributes": {
            "POSITION": 32,
            "NORMAL": 33,
            "TEXCOORD_0": 34
          },
          "indices": 35,
          "material": 7
        }
      ]
    },
    {
      "name": "Cylinder.010",
      "primitives": [
        {
          "attributes": {
            "POSITION": 36,
            "NORMAL": 37,
            "TEXCOORD_0": 38
          },
          "indices": 39,
          "material": 8
        }
      ]
    },
    {
      "name": "Cube.004",
      "primitives": [
        {
          "attributes": {
            "POSITION": 40,
            "NORMAL": 41
          },
          "indices": 42,
          "material": 9
        }
      ]
    }
  ],
  "textures": [
    {
      "source": 0
    },
    {
      "source": 1
    },
    {
      "source": 2
    },
    {
      "source": 3
    },
    {
      "source": 4
    },
    {
      "source": 5
    },
    {
      "source": 6
    },
    {
      "source": 7
    },
    {
      "source": 8
    },
    {
      "source": 9
    }
  ],
  "images": [
    {
      "name": "hubble_tex_01.jpg",
      "uri": "HubbleModel_img0.png"
    },
    {
      "name": "hubble_AO_1.jpg",
      "uri": "HubbleModel_img1.png"
    },
    {
      "name": "hubble_AO_light.jpg",
      "uri": "HubbleModel_img2.png"
    },
    {
      "name": "foil_n.jpg",
      "uri": "HubbleModel_img3.png"
    },
    {
      "name": "hubble_tex_01.jpg",
      "uri": "HubbleModel_img4.png"
    },
    {
      "name": "hubble_tex_03.jpg",
      "uri": "HubbleModel_img5.png"
    },
    {
      "name": "hubble_tex_01.jpg",
      "uri": "HubbleModel_img6.png"
    },
    {
      "name": "hubble_tex_02.jpg",
      "uri": "HubbleModel_img7.png"
    },
    {
      "name": "hubble_tex_03.jpg",
      "uri": "HubbleModel_img8.png"
    },
    {
      "name": "clear.png.001",
      "uri": "HubbleModel_img9.png"
    }
  ],
  "accessors": [
    {
      "bufferView": 0,
      "componentType": 5126,
      "count": 24,
      "max": [
        1.1427448987960815,
        3.1366655826568604,
        0.8622291684150696
      ],
      "min": [
        -1.1427420377731323,
        -3.0495846271514893,
        -0.5074621438980103
      ],
      "type": "VEC3"
    },
    {
      "bufferView": 1,
      "componentType": 5126,
      "count": 24,
      "type": "VEC3"
    },
    {
      "bufferView": 2,
      "componentType": 5126,
      "count": 24,
      "type": "VEC2"
    },
    {
      "bufferView": 3,
      "componentType": 5123,
      "count": 66,
      "type": "SCALAR"
    },
    {
      "bufferView": 4,
      "componentType": 5126,
      "count": 5070,
      "max": [
        0.720513105392456,
        3.882086992263794,
        2.810635566711426
      ],
      "min": [
        -0.9256146550178528,
        -1.9322867393493652,
        -2.6663239002227783
      ],
      "type": "VEC3"
    },
    {
      "bufferView": 5,
      "componentType": 5126,
      "count": 5070,
      "type": "VEC3"
    },
    {
      "bufferView": 6,
      "componentType": 5126,
      "count": 5070,
      "type": "VEC2"
    },
    {
      "bufferView": 7,
      "componentType": 5123,
      "count": 17358,
      "type": "SCALAR"
    },
    {
      "bufferView": 8,
      "componentType": 5126,
      "count": 816,
      "max": [
        1.128811001777649,
        3.9177205562591553,
        1.1900849342346191
      ],
      "min": [
        -0.7388128042221069,
        -2.3162693977355957,
        -0.5660427212715149
      ],
      "type": "VEC3"
    },
    {
      "bufferView": 9,
      "componentType": 5126,
      "count": 816,
      "type": "VEC3"
    },
    {
      "bufferView": 10,
      "componentType": 5126,
      "count": 816,
      "type": "VEC2"
    },
    {
      "bufferView": 11,
      "componentType": 5123,
      "count": 2754,
      "type": "SCALAR"
    },
    {
      "bufferView": 12,
      "componentType": 5126,
      "count": 64,
      "max": [
        1.9038920402526855,
        0.06134176254272461,
        -0.42263203859329224
      ],
      "min": [
        -1.9038898944854736,
        -0.061885833740234375,
        -1.7286274433135986
      ],
      "type": "VEC3"
    },
    {
      "bufferView": 13,
      "componentType": 5126,
      "count": 64,
      "type": "VEC3"
    },
    {
      "bufferView": 14,
      "componentType": 5126,
      "count": 64,
      "type": "VEC2"
    },
    {
      "bufferView": 15,
      "componentType": 5123,
      "count": 96,
      "type": "SCALAR"
    },
    {
      "bufferView": 16,
      "componentType": 5126,
      "count": 2737,
      "max": [
        5.144495964050293,
        6.845639705657959,
        1.8587971925735474
      ],
      "min": [
        -5.1444993019104,
        -5.545951843261719,
        -2.1069695949554443
      ],
      "type": "VEC3"
    },
    {
      "bufferView": 17,
      "componentType": 5126,
      "count": 2737,
      "type": "VEC3"
    },
    {
      "bufferView": 18,
      "componentType": 5126,
      "count": 2737,
      "type": "VEC2"
    },
    {
      "bufferView": 19,
      "componentType": 5123,
      "count": 8505,
      "type": "SCALAR"
    },
    {
      "bufferView": 20,
      "componentType": 5126,
      "count": 520,
      "max": [
        9.524383544921875,
        16.00235366821289,
        3.4661192893981934
      ],
      "min": [
        -9.692252159118652,
        -16.002347946166992,
        -3.4744937419891357
      ],
      "type": "VEC3"
    },
    {
      "bufferView": 21,
      "componentType": 5126,
      "count": 520,
      "type": "VEC3"
    },
    {
      "bufferView": 22,
      "componentType": 5126,
      "count": 520,
      "type": "VEC2"
    },
    {
      "bufferView": 23,
      "componentType": 5123,
      "count": 1860,
      "type": "SCALAR"
    },
    {
      "bufferView": 24,
      "componentType": 5126,
      "count": 166,
      "max": [
        0.9999920725822449,
        0.6277070045471191,
        1.320913314819336
      ],
      "min": [
        -1.0000078678131104,
        -0.6664154529571533,
        -0.6790868043899536
      ],
      "type": "VEC3"
    },
    {
      "bufferView": 25,
      "componentType": 5126,
      "count": 166,
      "type": "VEC3"
    },
    {
      "bufferView": 26,
      "componentType": 5126,
      "count": 166,
      "type": "VEC2"
    },
    {
      "bufferView": 27,
      "componentType": 5123,
      "count": 450,
      "type": "SCALAR"
    },
    {
      "bufferView": 28,
      "componentType": 5126,
      "count": 7655,
      "max": [
        17.187788009643555,
        16.00235366821289,
        16.85654640197754
      ],
      "min": [
        -21.591814041137695,
        -16.002347946166992,
        -16.019166946411133
      ],
      "type": "VEC3"
    },
    {
      "bufferView": 29,
      "componentType": 5126,
      "count": 7655,
      "type": "VEC3"
    },
    {
      "bufferView": 30,
      "componentType": 5126,
      "count": 7655,
      "type": "VEC2"
    },
    {
      "bufferView": 31,
      "componentType": 5123,
      "count": 21186,
      "type": "SCALAR"
    },
    {
      "bufferView": 32,
      "componentType": 5126,
      "count": 5252,
      "max": [
        5.242232322692871,
        6.794155597686768,
        5.4500298500061035
      ],
      "min": [
        -5.242222785949707,
        -5.748971939086914,
        -5.461368560791016
      ],
      "type": "VEC3"
    },
    {
      "bufferView": 33,
      "componentType": 5126,
      "count": 5252,
      "type": "VEC3"
    },
    {
      "bufferView": 34,
      "componentType": 5126,
      "count": 5252,
      "type": "VEC2"
    },
    {
      "bufferView": 35,
      "componentType": 5123,
      "count": 10860,
      "type": "SCALAR"
    },
    {
      "bufferView": 36,
      "componentType": 5126,
      "count": 192,
      "max": [
        1.0000005960464478,
        -0.5389270782470703,
        0.9999997019767761
      ],
      "min": [
        -0.9999994039535522,
        -2.1051087379455566,
        -1.0000003576278687
      ],
      "type": "VEC3"
    },
    {
      "bufferView": 37,
      "componentType": 5126,
      "count": 192,
      "type": "VEC3"
    },
    {
      "bufferView": 38,
      "componentType": 5126,
      "count": 192,
      "type": "VEC2"
    },
    {
      "bufferView": 39,
      "componentType": 5123,
      "count": 216,
      "type": "SCALAR"
    },
    {
      "bufferView": 40,
      "componentType": 5126,
      "count": 24,
      "max": [
        0.5000002384185791,
        0.5,
        0.5000002980232239
      ],
      "min": [
        -0.5000001788139343,
        -0.5,
        -0.5000001788139343
      ],
      "type": "VEC3"
    },
    {
      "bufferView": 41,
      "componentType": 5126,
      "count": 24,
      "type": "VEC3"
    },
    {
      "bufferView": 42,
      "componentType": 5123,
      "count": 36,
      "type": "SCALAR"
    }
  ],
  "bufferViews": [
    {
      "buffer": 0,
      "byteLength": 288,
      "byteOffset": 0
    },
    {
      "buffer": 0,
      "byteLength": 288,
      "byteOffset": 288
    },
    {
      "buffer": 0,
      "byteLength": 192,
      "byteOffset": 576
    },
    {
      "buffer": 0,
      "byteLength": 132,
      "byteOffset": 768
    },
    {
      "buffer": 0,
      "byteLength": 60840,
      "byteOffset": 900
    },
    {
      "buffer": 0,
      "byteLength": 60840,
      "byteOffset": 61740
    },
    {
      "buffer": 0,
      "byteLength": 40560,
      "byteOffset": 122580
    },
    {
      "buffer": 0,
      "byteLength": 34716,
      "byteOffset": 163140
    },
    {
      "buffer": 0,
      "byteLength": 9792,
      "byteOffset": 197856
    },
    {
      "buffer": 0,
      "byteLength": 9792,
      "byteOffset": 207648
    },
    {
      "buffer": 0,
      "byteLength": 6528,
      "byteOffset": 217440
    },
    {
      "buffer": 0,
      "byteLength": 5508,
      "byteOffset": 223968
    },
    {
      "buffer": 0,
      "byteLength": 768,
      "byteOffset": 229476
    },
    {
      "buffer": 0,
      "byteLength": 768,
      "byteOffset": 230244
    },
    {
      "buffer": 0,
      "byteLength": 512,
      "byteOffset": 231012
    },
    {
      "buffer": 0,
      "byteLength": 192,
      "byteOffset": 231524
    },
    {
      "buffer": 0,
      "byteLength": 32844,
      "byteOffset": 231716
    },
    {
      "buffer": 0,
      "byteLength": 32844,
      "byteOffset": 264560
    },
    {
      "buffer": 0,
      "byteLength": 21896,
      "byteOffset": 297404
    },
    {
      "buffer": 0,
      "byteLength": 17012,
      "byteOffset": 319300
    },
    {
      "buffer": 0,
      "byteLength": 6240,
      "byteOffset": 336312
    },
    {
      "buffer": 0,
      "byteLength": 6240,
      "byteOffset": 342552
    },
    {
      "buffer": 0,
      "byteLength": 4160,
      "byteOffset": 348792
    },
    {
      "buffer": 0,
      "byteLength": 3720,
      "byteOffset": 352952
    },
    {
      "buffer": 0,
      "byteLength": 1992,
      "byteOffset": 356672
    },
    {
      "buffer": 0,
      "byteLength": 1992,
      "byteOffset": 358664
    },
    {
      "buffer": 0,
      "byteLength": 1328,
      "byteOffset": 360656
    },
    {
      "buffer": 0,
      "byteLength": 900,
      "byteOffset": 361984
    },
    {
      "buffer": 0,
      "byteLength": 91860,
      "byteOffset": 362884
    },
    {
      "buffer": 0,
      "byteLength": 91860,
      "byteOffset": 454744
    },
    {
      "buffer": 0,
      "byteLength": 61240,
      "byteOffset": 546604
    },
    {
      "buffer": 0,
      "byteLength": 42372,
      "byteOffset": 607844
    },
    {
      "buffer": 0,
      "byteLength": 63024,
      "byteOffset": 650216
    },
    {
      "buffer": 0,
      "byteLength": 63024,
      "byteOffset": 713240
    },
    {
      "buffer": 0,
      "byteLength": 42016,
      "byteOffset": 776264
    },
    {
      "buffer": 0,
      "byteLength": 21720,
      "byteOffset": 818280
    },
    {
      "buffer": 0,
      "byteLength": 2304,
      "byteOffset": 840000
    },
    {
      "buffer": 0,
      "byteLength": 2304,
      "byteOffset": 842304
    },
    {
      "buffer": 0,
      "byteLength": 1536,
      "byteOffset": 844608
    },
    {
      "buffer": 0,
      "byteLength": 432,
      "byteOffset": 846144
    },
    {
      "buffer": 0,
      "byteLength": 288,
      "byteOffset": 846576
    },
    {
      "buffer": 0,
      "byteLength": 288,
      "byteOffset": 846864
    },
    {
      "buffer": 0,
      "byteLength": 72,
      "byteOffset": 847152
    }
  ],
  "buffers": [
    {
      "uri": "HubbleModel_data.bin",
      "byteLength": 847224
    }
  ]
}